# MagicaVoxel @ Ephtracy

# group
o barrel4

# material
mtllib chaingun-12-barrel4.mtl
usemtl palette

# normals
vn -1 0 0
vn 1 0 0
vn 0 0 1
vn 0 0 -1
vn 0 -1 0
vn 0 1 0

# texcoords
vt 0.00195313 0.5
vt 0.00585938 0.5

# verts
v 2.6 -0.9 -6.1
v 2.6 -0.9 -6.3
v 2.6 -0.8 -6
v 2.6 -0.8 -6.1
v 2.6 -0.8 -6.3
v 2.6 -0.8 -6.4
v 2.6 -0.6 -6
v 2.6 -0.6 -6.1
v 2.6 -0.6 -6.3
v 2.6 -0.6 -6.4
v 2.6 -0.6 -6.6
v 2.6 -0.5 -6
v 2.6 -0.5 -6.1
v 2.6 -0.5 -6.2
v 2.6 -0.5 -6.3
v 2.6 -0.5 -6.4
v 2.6 -0.5 -6.6
v 2.6 -0.5 -6.7
v 2.6 -0.4 -5.9
v 2.6 -0.4 -6
v 2.6 -0.4 -6.2
v 2.6 -0.4 -6.3
v 2.6 -0.3 -6.3
v 2.6 -0.3 -6.4
v 2.6 -0.3 -6.6
v 2.6 -0.3 -6.7
v 2.6 -0.2 -5.9
v 2.6 -0.2 -6
v 2.6 -0.2 -6.2
v 2.6 -0.2 -6.3
v 2.6 -0.2 -6.4
v 2.6 -0.2 -6.6
v 2.6 -0.1 -6
v 2.6 -0.1 -6.2
v 5.8 -0.8 -6.1
v 5.8 -0.8 -6.3
v 5.8 -0.6 -6.1
v 5.8 -0.6 -6.3
v 5.8 -0.5 -6.4
v 5.8 -0.5 -6.6
v 5.8 -0.4 -6
v 5.8 -0.4 -6.2
v 5.8 -0.3 -6.4
v 5.8 -0.3 -6.6
v 5.8 -0.2 -6
v 5.8 -0.2 -6.2
v 5.9 -0.9 -6.1
v 5.9 -0.9 -6.3
v 5.9 -0.8 -6
v 5.9 -0.8 -6.1
v 5.9 -0.8 -6.3
v 5.9 -0.8 -6.4
v 5.9 -0.6 -6
v 5.9 -0.6 -6.1
v 5.9 -0.6 -6.3
v 5.9 -0.6 -6.4
v 5.9 -0.6 -6.6
v 5.9 -0.5 -6
v 5.9 -0.5 -6.1
v 5.9 -0.5 -6.2
v 5.9 -0.5 -6.3
v 5.9 -0.5 -6.4
v 5.9 -0.5 -6.6
v 5.9 -0.5 -6.7
v 5.9 -0.4 -5.9
v 5.9 -0.4 -6
v 5.9 -0.4 -6.2
v 5.9 -0.4 -6.3
v 5.9 -0.3 -6.3
v 5.9 -0.3 -6.4
v 5.9 -0.3 -6.6
v 5.9 -0.3 -6.7
v 5.9 -0.2 -5.9
v 5.9 -0.2 -6
v 5.9 -0.2 -6.2
v 5.9 -0.2 -6.3
v 5.9 -0.2 -6.4
v 5.9 -0.2 -6.6
v 5.9 -0.1 -6
v 5.9 -0.1 -6.2
v 2.6 -0.4 -5.9
v 2.6 -0.2 -5.9
v 5.9 -0.4 -5.9
v 5.9 -0.2 -5.9
v 2.6 -0.8 -6
v 2.6 -0.6 -6
v 2.6 -0.5 -6
v 2.6 -0.4 -6
v 2.6 -0.2 -6
v 2.6 -0.1 -6
v 5.9 -0.8 -6
v 5.9 -0.6 -6
v 5.9 -0.5 -6
v 5.9 -0.4 -6
v 5.9 -0.2 -6
v 5.9 -0.1 -6
v 2.6 -0.9 -6.1
v 2.6 -0.8 -6.1
v 2.6 -0.6 -6.1
v 2.6 -0.5 -6.1
v 5.9 -0.9 -6.1
v 5.9 -0.8 -6.1
v 5.9 -0.6 -6.1
v 5.9 -0.5 -6.1
v 5.8 -0.4 -6.2
v 5.8 -0.2 -6.2
v 5.9 -0.4 -6.2
v 5.9 -0.2 -6.2
v 2.6 -0.5 -6.3
v 2.6 -0.4 -6.3
v 5.8 -0.8 -6.3
v 5.8 -0.6 -6.3
v 5.9 -0.8 -6.3
v 5.9 -0.6 -6.3
v 5.9 -0.5 -6.3
v 5.9 -0.4 -6.3
v 2.6 -0.6 -6.4
v 2.6 -0.5 -6.4
v 2.6 -0.3 -6.4
v 2.6 -0.2 -6.4
v 5.9 -0.6 -6.4
v 5.9 -0.5 -6.4
v 5.9 -0.3 -6.4
v 5.9 -0.2 -6.4
v 5.8 -0.5 -6.6
v 5.8 -0.3 -6.6
v 5.9 -0.5 -6.6
v 5.9 -0.3 -6.6
v 5.8 -0.4 -6
v 5.8 -0.2 -6
v 5.9 -0.4 -6
v 5.9 -0.2 -6
v 5.8 -0.8 -6.1
v 5.8 -0.6 -6.1
v 5.9 -0.8 -6.1
v 5.9 -0.6 -6.1
v 2.6 -0.5 -6.2
v 2.6 -0.4 -6.2
v 2.6 -0.2 -6.2
v 2.6 -0.1 -6.2
v 5.9 -0.5 -6.2
v 5.9 -0.4 -6.2
v 5.9 -0.2 -6.2
v 5.9 -0.1 -6.2
v 2.6 -0.9 -6.3
v 2.6 -0.8 -6.3
v 2.6 -0.6 -6.3
v 2.6 -0.5 -6.3
v 2.6 -0.3 -6.3
v 2.6 -0.2 -6.3
v 5.9 -0.9 -6.3
v 5.9 -0.8 -6.3
v 5.9 -0.6 -6.3
v 5.9 -0.5 -6.3
v 5.9 -0.3 -6.3
v 5.9 -0.2 -6.3
v 2.6 -0.8 -6.4
v 2.6 -0.6 -6.4
v 5.8 -0.5 -6.4
v 5.8 -0.3 -6.4
v 5.9 -0.8 -6.4
v 5.9 -0.6 -6.4
v 5.9 -0.5 -6.4
v 5.9 -0.3 -6.4
v 2.6 -0.6 -6.6
v 2.6 -0.5 -6.6
v 2.6 -0.3 -6.6
v 2.6 -0.2 -6.6
v 5.9 -0.6 -6.6
v 5.9 -0.5 -6.6
v 5.9 -0.3 -6.6
v 5.9 -0.2 -6.6
v 2.6 -0.5 -6.7
v 2.6 -0.3 -6.7
v 5.9 -0.5 -6.7
v 5.9 -0.3 -6.7
v 2.6 -0.9 -6.1
v 5.9 -0.9 -6.1
v 2.6 -0.9 -6.3
v 5.9 -0.9 -6.3
v 2.6 -0.8 -6
v 5.9 -0.8 -6
v 2.6 -0.8 -6.1
v 5.9 -0.8 -6.1
v 2.6 -0.8 -6.3
v 5.9 -0.8 -6.3
v 2.6 -0.8 -6.4
v 5.9 -0.8 -6.4
v 5.8 -0.6 -6.1
v 5.9 -0.6 -6.1
v 5.8 -0.6 -6.3
v 5.9 -0.6 -6.3
v 2.6 -0.6 -6.4
v 5.9 -0.6 -6.4
v 2.6 -0.6 -6.6
v 5.9 -0.6 -6.6
v 2.6 -0.5 -6
v 5.9 -0.5 -6
v 2.6 -0.5 -6.1
v 5.9 -0.5 -6.1
v 2.6 -0.5 -6.3
v 5.9 -0.5 -6.3
v 2.6 -0.5 -6.4
v 5.9 -0.5 -6.4
v 2.6 -0.5 -6.6
v 5.9 -0.5 -6.6
v 2.6 -0.5 -6.7
v 5.9 -0.5 -6.7
v 2.6 -0.4 -5.9
v 5.9 -0.4 -5.9
v 2.6 -0.4 -6
v 5.9 -0.4 -6
v 2.6 -0.4 -6.2
v 5.9 -0.4 -6.2
v 2.6 -0.4 -6.3
v 5.9 -0.4 -6.3
v 5.8 -0.3 -6.4
v 5.9 -0.3 -6.4
v 5.8 -0.3 -6.6
v 5.9 -0.3 -6.6
v 5.8 -0.2 -6
v 5.9 -0.2 -6
v 5.8 -0.2 -6.2
v 5.9 -0.2 -6.2
v 5.8 -0.8 -6.1
v 5.9 -0.8 -6.1
v 5.8 -0.8 -6.3
v 5.9 -0.8 -6.3
v 2.6 -0.6 -6
v 5.9 -0.6 -6
v 2.6 -0.6 -6.1
v 5.9 -0.6 -6.1
v 2.6 -0.6 -6.3
v 5.9 -0.6 -6.3
v 2.6 -0.6 -6.4
v 5.9 -0.6 -6.4
v 2.6 -0.5 -6.2
v 5.9 -0.5 -6.2
v 2.6 -0.5 -6.3
v 5.9 -0.5 -6.3
v 5.8 -0.5 -6.4
v 5.9 -0.5 -6.4
v 5.8 -0.5 -6.6
v 5.9 -0.5 -6.6
v 5.8 -0.4 -6
v 5.9 -0.4 -6
v 5.8 -0.4 -6.2
v 5.9 -0.4 -6.2
v 2.6 -0.3 -6.3
v 5.9 -0.3 -6.3
v 2.6 -0.3 -6.4
v 5.9 -0.3 -6.4
v 2.6 -0.3 -6.6
v 5.9 -0.3 -6.6
v 2.6 -0.3 -6.7
v 5.9 -0.3 -6.7
v 2.6 -0.2 -5.9
v 5.9 -0.2 -5.9
v 2.6 -0.2 -6
v 5.9 -0.2 -6
v 2.6 -0.2 -6.2
v 5.9 -0.2 -6.2
v 2.6 -0.2 -6.3
v 5.9 -0.2 -6.3
v 2.6 -0.2 -6.4
v 5.9 -0.2 -6.4
v 2.6 -0.2 -6.6
v 5.9 -0.2 -6.6
v 2.6 -0.1 -6
v 5.9 -0.1 -6
v 2.6 -0.1 -6.2
v 5.9 -0.1 -6.2

# faces
f 4/2/1 2/2/1 1/2/1
f 5/2/1 2/2/1 4/2/1
f 7/2/1 4/2/1 3/2/1
f 7/2/1 6/2/1 5/2/1
f 7/2/1 5/2/1 4/2/1
f 8/2/1 6/2/1 7/2/1
f 9/2/1 6/2/1 8/2/1
f 10/2/1 6/2/1 9/2/1
f 13/2/1 9/2/1 8/2/1
f 14/2/1 9/2/1 13/2/1
f 15/2/1 9/2/1 14/2/1
f 16/2/1 11/2/1 10/2/1
f 17/2/1 11/2/1 16/2/1
f 20/2/1 13/2/1 12/2/1
f 20/2/1 14/2/1 13/2/1
f 21/2/1 14/2/1 20/2/1
f 22/2/1 18/2/1 17/2/1
f 22/2/1 17/2/1 16/2/1
f 22/2/1 16/2/1 15/2/1
f 23/2/1 21/2/1 20/2/1
f 23/2/1 22/2/1 21/2/1
f 23/2/1 18/2/1 22/2/1
f 23/2/1 20/2/1 19/2/1
f 24/2/1 18/2/1 23/2/1
f 25/2/1 18/2/1 24/2/1
f 26/2/1 18/2/1 25/2/1
f 27/2/1 23/2/1 19/2/1
f 28/2/1 23/2/1 27/2/1
f 29/2/1 23/2/1 28/2/1
f 30/2/1 23/2/1 29/2/1
f 31/2/1 25/2/1 24/2/1
f 32/2/1 25/2/1 31/2/1
f 33/2/1 29/2/1 28/2/1
f 34/2/1 29/2/1 33/2/1
f 35/1/2 36/1/2 37/1/2
f 37/1/2 36/1/2 38/1/2
f 39/1/2 40/1/2 43/1/2
f 43/1/2 40/1/2 44/1/2
f 41/1/2 42/1/2 45/1/2
f 45/1/2 42/1/2 46/1/2
f 47/2/2 48/2/2 50/2/2
f 50/2/2 48/2/2 51/2/2
f 49/2/2 50/2/2 53/2/2
f 53/2/2 50/2/2 54/2/2
f 51/2/2 52/2/2 55/2/2
f 55/2/2 52/2/2 56/2/2
f 54/2/2 55/2/2 59/2/2
f 59/2/2 55/2/2 60/2/2
f 60/2/2 55/2/2 61/2/2
f 56/2/2 57/2/2 62/2/2
f 62/2/2 57/2/2 63/2/2
f 58/2/2 59/2/2 66/2/2
f 59/2/2 60/2/2 66/2/2
f 66/2/2 60/2/2 67/2/2
f 61/2/2 62/2/2 68/2/2
f 67/2/2 68/2/2 69/2/2
f 68/2/2 62/2/2 69/2/2
f 69/2/2 62/2/2 70/2/2
f 63/2/2 64/2/2 71/2/2
f 71/2/2 64/2/2 72/2/2
f 65/2/2 66/2/2 73/2/2
f 73/2/2 66/2/2 74/2/2
f 67/2/2 69/2/2 75/2/2
f 75/2/2 69/2/2 76/2/2
f 70/2/2 71/2/2 77/2/2
f 77/2/2 71/2/2 78/2/2
f 74/2/2 75/2/2 79/2/2
f 79/2/2 75/2/2 80/2/2
f 83/2/3 82/2/3 81/2/3
f 84/2/3 82/2/3 83/2/3
f 91/2/3 86/2/3 85/2/3
f 92/2/3 86/2/3 91/2/3
f 93/2/3 88/2/3 87/2/3
f 94/2/3 88/2/3 93/2/3
f 95/2/3 90/2/3 89/2/3
f 96/2/3 90/2/3 95/2/3
f 101/2/3 98/2/3 97/2/3
f 102/2/3 98/2/3 101/2/3
f 103/2/3 100/2/3 99/2/3
f 104/2/3 100/2/3 103/2/3
f 107/2/3 106/2/3 105/2/3
f 108/2/3 106/2/3 107/2/3
f 113/2/3 112/2/3 111/2/3
f 114/2/3 112/2/3 113/2/3
f 115/2/3 110/2/3 109/2/3
f 116/2/3 110/2/3 115/2/3
f 121/2/3 118/2/3 117/2/3
f 122/2/3 118/2/3 121/2/3
f 123/2/3 120/2/3 119/2/3
f 124/2/3 120/2/3 123/2/3
f 127/2/3 126/2/3 125/2/3
f 128/2/3 126/2/3 127/2/3
f 129/2/4 130/2/4 131/2/4
f 131/2/4 130/2/4 132/2/4
f 133/2/4 134/2/4 135/2/4
f 135/2/4 134/2/4 136/2/4
f 137/2/4 138/2/4 141/2/4
f 141/2/4 138/2/4 142/2/4
f 139/2/4 140/2/4 143/2/4
f 143/2/4 140/2/4 144/2/4
f 145/2/4 146/2/4 151/2/4
f 151/2/4 146/2/4 152/2/4
f 147/2/4 148/2/4 153/2/4
f 153/2/4 148/2/4 154/2/4
f 149/2/4 150/2/4 155/2/4
f 155/2/4 150/2/4 156/2/4
f 157/2/4 158/2/4 161/2/4
f 161/2/4 158/2/4 162/2/4
f 159/2/4 160/2/4 163/2/4
f 163/2/4 160/2/4 164/2/4
f 165/2/4 166/2/4 169/2/4
f 169/2/4 166/2/4 170/2/4
f 167/2/4 168/2/4 171/2/4
f 171/2/4 168/2/4 172/2/4
f 173/2/4 174/2/4 175/2/4
f 175/2/4 174/2/4 176/2/4
f 179/2/5 178/2/5 177/2/5
f 180/2/5 178/2/5 179/2/5
f 183/2/5 182/2/5 181/2/5
f 184/2/5 182/2/5 183/2/5
f 187/2/5 186/2/5 185/2/5
f 188/2/5 186/2/5 187/2/5
f 191/2/5 190/2/5 189/2/5
f 192/2/5 190/2/5 191/2/5
f 195/2/5 194/2/5 193/2/5
f 196/2/5 194/2/5 195/2/5
f 199/2/5 198/2/5 197/2/5
f 200/2/5 198/2/5 199/2/5
f 203/2/5 202/2/5 201/2/5
f 204/2/5 202/2/5 203/2/5
f 207/2/5 206/2/5 205/2/5
f 208/2/5 206/2/5 207/2/5
f 211/2/5 210/2/5 209/2/5
f 212/2/5 210/2/5 211/2/5
f 215/2/5 214/2/5 213/2/5
f 216/2/5 214/2/5 215/2/5
f 219/2/5 218/2/5 217/2/5
f 220/2/5 218/2/5 219/2/5
f 223/2/5 222/2/5 221/2/5
f 224/2/5 222/2/5 223/2/5
f 225/2/6 226/2/6 227/2/6
f 227/2/6 226/2/6 228/2/6
f 229/2/6 230/2/6 231/2/6
f 231/2/6 230/2/6 232/2/6
f 233/2/6 234/2/6 235/2/6
f 235/2/6 234/2/6 236/2/6
f 237/2/6 238/2/6 239/2/6
f 239/2/6 238/2/6 240/2/6
f 241/2/6 242/2/6 243/2/6
f 243/2/6 242/2/6 244/2/6
f 245/2/6 246/2/6 247/2/6
f 247/2/6 246/2/6 248/2/6
f 249/2/6 250/2/6 251/2/6
f 251/2/6 250/2/6 252/2/6
f 253/2/6 254/2/6 255/2/6
f 255/2/6 254/2/6 256/2/6
f 257/2/6 258/2/6 259/2/6
f 259/2/6 258/2/6 260/2/6
f 261/2/6 262/2/6 263/2/6
f 263/2/6 262/2/6 264/2/6
f 265/2/6 266/2/6 267/2/6
f 267/2/6 266/2/6 268/2/6
f 269/2/6 270/2/6 271/2/6
f 271/2/6 270/2/6 272/2/6
