# MagicaVoxel @ Ephtracy

# group
o barrel1

# material
mtllib chaingun-9-barrel1.mtl
usemtl palette

# normals
vn -1 0 0
vn 1 0 0
vn 0 0 1
vn 0 0 -1
vn 0 -1 0
vn 0 1 0

# texcoords
vt 0.00195313 0.5
vt 0.00585938 0.5

# verts
v 2.6 -0.8 -5.9
v 2.6 -0.8 -6.1
v 2.6 -0.8 -6.3
v 2.6 -0.8 -6.5
v 2.6 -0.7 -5.8
v 2.6 -0.7 -5.9
v 2.6 -0.7 -6.1
v 2.6 -0.7 -6.3
v 2.6 -0.7 -6.5
v 2.6 -0.7 -6.6
v 2.6 -0.5 -5.8
v 2.6 -0.5 -5.9
v 2.6 -0.5 -6.5
v 2.6 -0.5 -6.6
v 2.6 -0.4 -5.9
v 2.6 -0.4 -6
v 2.6 -0.4 -6.4
v 2.6 -0.4 -6.5
v 2.6 -0.2 -6
v 2.6 -0.2 -6.1
v 2.6 -0.2 -6.3
v 2.6 -0.2 -6.4
v 2.6 -0.1 -6.1
v 2.6 -0.1 -6.3
v 5.8 -0.7 -5.9
v 5.8 -0.7 -6.1
v 5.8 -0.7 -6.3
v 5.8 -0.7 -6.5
v 5.8 -0.5 -5.9
v 5.8 -0.5 -6.1
v 5.8 -0.5 -6.3
v 5.8 -0.5 -6.5
v 5.8 -0.4 -6.1
v 5.8 -0.4 -6.3
v 5.8 -0.2 -6.1
v 5.8 -0.2 -6.3
v 5.9 -0.8 -5.9
v 5.9 -0.8 -6.1
v 5.9 -0.8 -6.3
v 5.9 -0.8 -6.5
v 5.9 -0.7 -5.8
v 5.9 -0.7 -5.9
v 5.9 -0.7 -6.1
v 5.9 -0.7 -6.3
v 5.9 -0.7 -6.5
v 5.9 -0.7 -6.6
v 5.9 -0.5 -5.8
v 5.9 -0.5 -5.9
v 5.9 -0.5 -6.1
v 5.9 -0.5 -6.3
v 5.9 -0.5 -6.5
v 5.9 -0.5 -6.6
v 5.9 -0.4 -5.9
v 5.9 -0.4 -6
v 5.9 -0.4 -6.1
v 5.9 -0.4 -6.3
v 5.9 -0.4 -6.4
v 5.9 -0.4 -6.5
v 5.9 -0.2 -6
v 5.9 -0.2 -6.1
v 5.9 -0.2 -6.3
v 5.9 -0.2 -6.4
v 5.9 -0.1 -6.1
v 5.9 -0.1 -6.3
v 2.6 -0.7 -5.8
v 2.6 -0.5 -5.8
v 5.9 -0.7 -5.8
v 5.9 -0.5 -5.8
v 2.6 -0.8 -5.9
v 2.6 -0.7 -5.9
v 2.6 -0.5 -5.9
v 2.6 -0.4 -5.9
v 5.9 -0.8 -5.9
v 5.9 -0.7 -5.9
v 5.9 -0.5 -5.9
v 5.9 -0.4 -5.9
v 2.6 -0.4 -6
v 2.6 -0.2 -6
v 5.9 -0.4 -6
v 5.9 -0.2 -6
v 2.6 -0.2 -6.1
v 2.6 -0.1 -6.1
v 5.8 -0.7 -6.1
v 5.8 -0.5 -6.1
v 5.9 -0.7 -6.1
v 5.9 -0.5 -6.1
v 5.9 -0.2 -6.1
v 5.9 -0.1 -6.1
v 2.6 -0.8 -6.3
v 2.6 -0.7 -6.3
v 5.8 -0.4 -6.3
v 5.8 -0.2 -6.3
v 5.9 -0.8 -6.3
v 5.9 -0.7 -6.3
v 5.9 -0.4 -6.3
v 5.9 -0.2 -6.3
v 5.8 -0.7 -6.5
v 5.8 -0.5 -6.5
v 5.9 -0.7 -6.5
v 5.9 -0.5 -6.5
v 5.8 -0.7 -5.9
v 5.8 -0.5 -5.9
v 5.9 -0.7 -5.9
v 5.9 -0.5 -5.9
v 2.6 -0.8 -6.1
v 2.6 -0.7 -6.1
v 5.8 -0.4 -6.1
v 5.8 -0.2 -6.1
v 5.9 -0.8 -6.1
v 5.9 -0.7 -6.1
v 5.9 -0.4 -6.1
v 5.9 -0.2 -6.1
v 2.6 -0.2 -6.3
v 2.6 -0.1 -6.3
v 5.8 -0.7 -6.3
v 5.8 -0.5 -6.3
v 5.9 -0.7 -6.3
v 5.9 -0.5 -6.3
v 5.9 -0.2 -6.3
v 5.9 -0.1 -6.3
v 2.6 -0.4 -6.4
v 2.6 -0.2 -6.4
v 5.9 -0.4 -6.4
v 5.9 -0.2 -6.4
v 2.6 -0.8 -6.5
v 2.6 -0.7 -6.5
v 2.6 -0.5 -6.5
v 2.6 -0.4 -6.5
v 5.9 -0.8 -6.5
v 5.9 -0.7 -6.5
v 5.9 -0.5 -6.5
v 5.9 -0.4 -6.5
v 2.6 -0.7 -6.6
v 2.6 -0.5 -6.6
v 5.9 -0.7 -6.6
v 5.9 -0.5 -6.6
v 2.6 -0.8 -5.9
v 5.9 -0.8 -5.9
v 2.6 -0.8 -6.1
v 5.9 -0.8 -6.1
v 2.6 -0.8 -6.3
v 5.9 -0.8 -6.3
v 2.6 -0.8 -6.5
v 5.9 -0.8 -6.5
v 2.6 -0.7 -5.8
v 5.9 -0.7 -5.8
v 2.6 -0.7 -5.9
v 5.9 -0.7 -5.9
v 2.6 -0.7 -6.1
v 5.9 -0.7 -6.1
v 2.6 -0.7 -6.3
v 5.9 -0.7 -6.3
v 2.6 -0.7 -6.5
v 5.9 -0.7 -6.5
v 2.6 -0.7 -6.6
v 5.9 -0.7 -6.6
v 5.8 -0.5 -5.9
v 5.9 -0.5 -5.9
v 5.8 -0.5 -6.1
v 5.9 -0.5 -6.1
v 5.8 -0.5 -6.3
v 5.9 -0.5 -6.3
v 5.8 -0.5 -6.5
v 5.9 -0.5 -6.5
v 5.8 -0.2 -6.1
v 5.9 -0.2 -6.1
v 5.8 -0.2 -6.3
v 5.9 -0.2 -6.3
v 5.8 -0.7 -5.9
v 5.9 -0.7 -5.9
v 5.8 -0.7 -6.1
v 5.9 -0.7 -6.1
v 5.8 -0.7 -6.3
v 5.9 -0.7 -6.3
v 5.8 -0.7 -6.5
v 5.9 -0.7 -6.5
v 2.6 -0.5 -5.8
v 5.9 -0.5 -5.8
v 2.6 -0.5 -5.9
v 5.9 -0.5 -5.9
v 2.6 -0.5 -6.5
v 5.9 -0.5 -6.5
v 2.6 -0.5 -6.6
v 5.9 -0.5 -6.6
v 2.6 -0.4 -5.9
v 5.9 -0.4 -5.9
v 2.6 -0.4 -6
v 5.9 -0.4 -6
v 5.8 -0.4 -6.1
v 5.9 -0.4 -6.1
v 5.8 -0.4 -6.3
v 5.9 -0.4 -6.3
v 2.6 -0.4 -6.4
v 5.9 -0.4 -6.4
v 2.6 -0.4 -6.5
v 5.9 -0.4 -6.5
v 2.6 -0.2 -6
v 5.9 -0.2 -6
v 2.6 -0.2 -6.1
v 5.9 -0.2 -6.1
v 2.6 -0.2 -6.3
v 5.9 -0.2 -6.3
v 2.6 -0.2 -6.4
v 5.9 -0.2 -6.4
v 2.6 -0.1 -6.1
v 5.9 -0.1 -6.1
v 2.6 -0.1 -6.3
v 5.9 -0.1 -6.3

# faces
f 6/2/1 2/2/1 1/2/1
f 7/2/1 2/2/1 6/2/1
f 8/2/1 4/2/1 3/2/1
f 9/2/1 4/2/1 8/2/1
f 11/2/1 7/2/1 6/2/1
f 11/2/1 10/2/1 9/2/1
f 11/2/1 9/2/1 8/2/1
f 11/2/1 8/2/1 7/2/1
f 11/2/1 6/2/1 5/2/1
f 12/2/1 10/2/1 11/2/1
f 13/2/1 10/2/1 12/2/1
f 14/2/1 10/2/1 13/2/1
f 15/2/1 13/2/1 12/2/1
f 16/2/1 13/2/1 15/2/1
f 17/2/1 13/2/1 16/2/1
f 18/2/1 13/2/1 17/2/1
f 19/2/1 17/2/1 16/2/1
f 20/2/1 17/2/1 19/2/1
f 21/2/1 17/2/1 20/2/1
f 22/2/1 17/2/1 21/2/1
f 23/2/1 21/2/1 20/2/1
f 24/2/1 21/2/1 23/2/1
f 25/1/2 26/1/2 29/1/2
f 29/1/2 26/1/2 30/1/2
f 27/1/2 28/1/2 31/1/2
f 31/1/2 28/1/2 32/1/2
f 33/1/2 34/1/2 35/1/2
f 35/1/2 34/1/2 36/1/2
f 37/2/2 38/2/2 42/2/2
f 42/2/2 38/2/2 43/2/2
f 39/2/2 40/2/2 44/2/2
f 44/2/2 40/2/2 45/2/2
f 41/2/2 42/2/2 47/2/2
f 47/2/2 42/2/2 48/2/2
f 43/2/2 44/2/2 49/2/2
f 49/2/2 44/2/2 50/2/2
f 45/2/2 46/2/2 51/2/2
f 51/2/2 46/2/2 52/2/2
f 49/2/2 50/2/2 53/2/2
f 50/2/2 51/2/2 53/2/2
f 48/2/2 49/2/2 53/2/2
f 53/2/2 51/2/2 54/2/2
f 54/2/2 51/2/2 55/2/2
f 55/2/2 51/2/2 56/2/2
f 56/2/2 51/2/2 57/2/2
f 57/2/2 51/2/2 58/2/2
f 54/2/2 55/2/2 59/2/2
f 59/2/2 55/2/2 60/2/2
f 56/2/2 57/2/2 61/2/2
f 61/2/2 57/2/2 62/2/2
f 60/2/2 61/2/2 63/2/2
f 63/2/2 61/2/2 64/2/2
f 67/2/3 66/2/3 65/2/3
f 68/2/3 66/2/3 67/2/3
f 73/2/3 70/2/3 69/2/3
f 74/2/3 70/2/3 73/2/3
f 75/2/3 72/2/3 71/2/3
f 76/2/3 72/2/3 75/2/3
f 79/2/3 78/2/3 77/2/3
f 80/2/3 78/2/3 79/2/3
f 85/2/3 84/2/3 83/2/3
f 86/2/3 84/2/3 85/2/3
f 87/2/3 82/2/3 81/2/3
f 88/2/3 82/2/3 87/2/3
f 93/2/3 90/2/3 89/2/3
f 94/2/3 90/2/3 93/2/3
f 95/2/3 92/2/3 91/2/3
f 96/2/3 92/2/3 95/2/3
f 99/2/3 98/2/3 97/2/3
f 100/2/3 98/2/3 99/2/3
f 101/2/4 102/2/4 103/2/4
f 103/2/4 102/2/4 104/2/4
f 105/2/4 106/2/4 109/2/4
f 109/2/4 106/2/4 110/2/4
f 107/2/4 108/2/4 111/2/4
f 111/2/4 108/2/4 112/2/4
f 115/2/4 116/2/4 117/2/4
f 117/2/4 116/2/4 118/2/4
f 113/2/4 114/2/4 119/2/4
f 119/2/4 114/2/4 120/2/4
f 121/2/4 122/2/4 123/2/4
f 123/2/4 122/2/4 124/2/4
f 125/2/4 126/2/4 129/2/4
f 129/2/4 126/2/4 130/2/4
f 127/2/4 128/2/4 131/2/4
f 131/2/4 128/2/4 132/2/4
f 133/2/4 134/2/4 135/2/4
f 135/2/4 134/2/4 136/2/4
f 139/2/5 138/2/5 137/2/5
f 140/2/5 138/2/5 139/2/5
f 143/2/5 142/2/5 141/2/5
f 144/2/5 142/2/5 143/2/5
f 147/2/5 146/2/5 145/2/5
f 148/2/5 146/2/5 147/2/5
f 151/2/5 150/2/5 149/2/5
f 152/2/5 150/2/5 151/2/5
f 155/2/5 154/2/5 153/2/5
f 156/2/5 154/2/5 155/2/5
f 159/2/5 158/2/5 157/2/5
f 160/2/5 158/2/5 159/2/5
f 163/2/5 162/2/5 161/2/5
f 164/2/5 162/2/5 163/2/5
f 167/2/5 166/2/5 165/2/5
f 168/2/5 166/2/5 167/2/5
f 169/2/6 170/2/6 171/2/6
f 171/2/6 170/2/6 172/2/6
f 173/2/6 174/2/6 175/2/6
f 175/2/6 174/2/6 176/2/6
f 177/2/6 178/2/6 179/2/6
f 179/2/6 178/2/6 180/2/6
f 181/2/6 182/2/6 183/2/6
f 183/2/6 182/2/6 184/2/6
f 185/2/6 186/2/6 187/2/6
f 187/2/6 186/2/6 188/2/6
f 189/2/6 190/2/6 191/2/6
f 191/2/6 190/2/6 192/2/6
f 193/2/6 194/2/6 195/2/6
f 195/2/6 194/2/6 196/2/6
f 197/2/6 198/2/6 199/2/6
f 199/2/6 198/2/6 200/2/6
f 201/2/6 202/2/6 203/2/6
f 203/2/6 202/2/6 204/2/6
f 205/2/6 206/2/6 207/2/6
f 207/2/6 206/2/6 208/2/6
