# MagicaVoxel @ Ephtracy

# group
o 

# material
mtllib shotgun-9.mtl
usemtl palette

# normals
vn -1 0 0
vn 1 0 0
vn 0 0 1
vn 0 0 -1
vn 0 -1 0
vn 0 1 0

# texcoords
vt 0.0449219 0.5
vt 0.0605469 0.5
vt 0.0722656 0.5
vt 0.955078 0.5

# verts
v 1 0.6 -4.5
v 1 0.6 -4.8
v 1 0.9 -4.5
v 1 0.9 -4.8
v 1.1 0.9 -4.5
v 1.1 0.9 -4.6
v 1.1 0.9 -4.7
v 1.1 0.9 -4.8
v 1.1 1 -4.5
v 1.1 1 -4.6
v 1.1 1 -4.7
v 1.1 1 -4.8
v 1.6 0.9 -4.6
v 1.6 0.9 -4.7
v 1.6 1 -4.6
v 1.6 1 -4.7
v 1.2 0.9 -4.6
v 1.2 0.9 -4.7
v 1.2 1 -4.6
v 1.2 1 -4.7
v 1.8 0.9 -4.5
v 1.8 0.9 -4.6
v 1.8 0.9 -4.7
v 1.8 0.9 -4.8
v 1.8 1 -4.5
v 1.8 1 -4.6
v 1.8 1 -4.7
v 1.8 1 -4.8
v 1.9 0.6 -4.5
v 1.9 0.6 -4.8
v 1.9 0.9 -4.5
v 1.9 0.9 -4.6
v 1.9 0.9 -4.7
v 1.9 0.9 -4.8
v 1.9 1 -4.6
v 1.9 1 -4.7
v 1 0.6 -4.5
v 1 0.9 -4.5
v 1.1 0.7 -4.5
v 1.1 0.9 -4.5
v 1.1 1 -4.5
v 1.2 0.7 -4.5
v 1.2 0.8 -4.5
v 1.3 0.7 -4.5
v 1.3 0.8 -4.5
v 1.4 0.7 -4.5
v 1.4 0.8 -4.5
v 1.5 0.7 -4.5
v 1.5 0.8 -4.5
v 1.6 0.7 -4.5
v 1.6 0.8 -4.5
v 1.7 0.7 -4.5
v 1.7 0.8 -4.5
v 1.8 0.7 -4.5
v 1.8 0.9 -4.5
v 1.8 1 -4.5
v 1.9 0.6 -4.5
v 1.9 0.9 -4.5
v 1.8 0.9 -4.6
v 1.8 1 -4.6
v 1.9 0.9 -4.6
v 1.9 1 -4.6
v 1.2 0.9 -4.7
v 1.2 1 -4.7
v 1.6 0.9 -4.7
v 1.6 1 -4.7
v 1.2 0.9 -4.6
v 1.2 1 -4.6
v 1.6 0.9 -4.6
v 1.6 1 -4.6
v 1.8 0.9 -4.7
v 1.8 1 -4.7
v 1.9 0.9 -4.7
v 1.9 1 -4.7
v 1 0.6 -4.8
v 1 0.9 -4.8
v 1.1 0.7 -4.8
v 1.1 0.9 -4.8
v 1.1 1 -4.8
v 1.2 0.7 -4.8
v 1.2 0.8 -4.8
v 1.3 0.7 -4.8
v 1.3 0.8 -4.8
v 1.4 0.7 -4.8
v 1.4 0.8 -4.8
v 1.5 0.7 -4.8
v 1.5 0.8 -4.8
v 1.6 0.7 -4.8
v 1.6 0.8 -4.8
v 1.7 0.7 -4.8
v 1.7 0.8 -4.8
v 1.8 0.7 -4.8
v 1.8 0.9 -4.8
v 1.8 1 -4.8
v 1.9 0.6 -4.8
v 1.9 0.9 -4.8
v 1 0.6 -4.5
v 1.9 0.6 -4.5
v 1 0.6 -4.8
v 1.9 0.6 -4.8
v 1 0.9 -4.5
v 1.1 0.9 -4.5
v 1.8 0.9 -4.5
v 1.9 0.9 -4.5
v 1.1 0.9 -4.6
v 1.2 0.9 -4.6
v 1.6 0.9 -4.6
v 1.8 0.9 -4.6
v 1.9 0.9 -4.6
v 1.1 0.9 -4.7
v 1.2 0.9 -4.7
v 1.6 0.9 -4.7
v 1.8 0.9 -4.7
v 1.9 0.9 -4.7
v 1 0.9 -4.8
v 1.1 0.9 -4.8
v 1.8 0.9 -4.8
v 1.9 0.9 -4.8
v 1.1 1 -4.5
v 1.8 1 -4.5
v 1.1 1 -4.6
v 1.2 1 -4.6
v 1.6 1 -4.6
v 1.7 1 -4.6
v 1.8 1 -4.6
v 1.9 1 -4.6
v 1.1 1 -4.7
v 1.2 1 -4.7
v 1.6 1 -4.7
v 1.7 1 -4.7
v 1.8 1 -4.7
v 1.9 1 -4.7
v 1.1 1 -4.8
v 1.8 1 -4.8

# faces
f 3/1/1 2/1/1 1/1/1
f 4/1/1 2/1/1 3/1/1
f 9/1/1 6/1/1 5/1/1
f 10/2/1 7/2/1 6/2/1
f 10/1/1 6/1/1 9/1/1
f 11/1/1 8/1/1 7/1/1
f 11/2/1 7/2/1 10/2/1
f 12/1/1 8/1/1 11/1/1
f 15/2/1 14/2/1 13/2/1
f 16/2/1 14/2/1 15/2/1
f 17/2/2 18/2/2 19/2/2
f 19/2/2 18/2/2 20/2/2
f 21/1/2 22/1/2 25/1/2
f 25/1/2 22/1/2 26/1/2
f 23/1/2 24/1/2 27/1/2
f 27/1/2 24/1/2 28/1/2
f 29/1/2 30/1/2 31/1/2
f 31/1/2 30/1/2 32/1/2
f 32/1/2 30/1/2 33/1/2
f 33/1/2 30/1/2 34/1/2
f 32/3/2 33/3/2 35/3/2
f 35/3/2 33/3/2 36/3/2
f 39/1/3 38/1/3 37/1/3
f 40/1/3 38/1/3 39/1/3
f 42/1/3 39/1/3 37/1/3
f 42/2/3 40/2/3 39/2/3
f 43/2/3 40/2/3 42/2/3
f 44/1/3 42/1/3 37/1/3
f 44/1/3 43/1/3 42/1/3
f 45/2/3 40/2/3 43/2/3
f 45/1/3 43/1/3 44/1/3
f 46/1/3 44/1/3 37/1/3
f 46/2/3 45/2/3 44/2/3
f 47/2/3 40/2/3 45/2/3
f 47/2/3 45/2/3 46/2/3
f 48/1/3 46/1/3 37/1/3
f 48/1/3 47/1/3 46/1/3
f 49/2/3 40/2/3 47/2/3
f 49/1/3 47/1/3 48/1/3
f 50/1/3 48/1/3 37/1/3
f 50/2/3 49/2/3 48/2/3
f 51/2/3 40/2/3 49/2/3
f 51/2/3 49/2/3 50/2/3
f 52/1/3 50/1/3 37/1/3
f 52/1/3 51/1/3 50/1/3
f 53/2/3 40/2/3 51/2/3
f 53/1/3 51/1/3 52/1/3
f 54/1/3 52/1/3 37/1/3
f 54/2/3 53/2/3 52/2/3
f 55/1/3 41/1/3 40/1/3
f 55/2/3 53/2/3 54/2/3
f 55/2/3 40/2/3 53/2/3
f 56/1/3 41/1/3 55/1/3
f 57/1/3 54/1/3 37/1/3
f 57/1/3 55/1/3 54/1/3
f 58/1/3 55/1/3 57/1/3
f 61/3/3 60/3/3 59/3/3
f 62/3/3 60/3/3 61/3/3
f 65/1/3 64/1/3 63/1/3
f 66/1/3 64/1/3 65/1/3
f 67/1/4 68/1/4 69/1/4
f 69/1/4 68/1/4 70/1/4
f 71/3/4 72/3/4 73/3/4
f 73/3/4 72/3/4 74/3/4
f 75/1/4 76/1/4 77/1/4
f 77/1/4 76/1/4 78/1/4
f 75/1/4 77/1/4 80/1/4
f 77/2/4 78/2/4 80/2/4
f 80/2/4 78/2/4 81/2/4
f 75/1/4 80/1/4 82/1/4
f 80/1/4 81/1/4 82/1/4
f 81/2/4 78/2/4 83/2/4
f 82/1/4 81/1/4 83/1/4
f 75/1/4 82/1/4 84/1/4
f 82/2/4 83/2/4 84/2/4
f 83/2/4 78/2/4 85/2/4
f 84/2/4 83/2/4 85/2/4
f 75/1/4 84/1/4 86/1/4
f 84/1/4 85/1/4 86/1/4
f 85/2/4 78/2/4 87/2/4
f 86/1/4 85/1/4 87/1/4
f 75/1/4 86/1/4 88/1/4
f 86/2/4 87/2/4 88/2/4
f 87/2/4 78/2/4 89/2/4
f 88/2/4 87/2/4 89/2/4
f 75/1/4 88/1/4 90/1/4
f 88/1/4 89/1/4 90/1/4
f 89/2/4 78/2/4 91/2/4
f 90/1/4 89/1/4 91/1/4
f 75/1/4 90/1/4 92/1/4
f 90/2/4 91/2/4 92/2/4
f 78/1/4 79/1/4 93/1/4
f 92/2/4 91/2/4 93/2/4
f 91/2/4 78/2/4 93/2/4
f 93/1/4 79/1/4 94/1/4
f 75/1/4 92/1/4 95/1/4
f 92/1/4 93/1/4 95/1/4
f 95/1/4 93/1/4 96/1/4
f 99/1/5 98/1/5 97/1/5
f 100/1/5 98/1/5 99/1/5
f 101/1/6 102/1/6 105/1/6
f 103/1/6 104/1/6 108/1/6
f 108/1/6 104/1/6 109/1/6
f 101/1/6 105/1/6 110/1/6
f 106/1/6 107/1/6 111/1/6
f 111/1/6 107/1/6 112/1/6
f 101/1/6 110/1/6 115/1/6
f 115/1/6 110/1/6 116/1/6
f 113/1/6 114/1/6 117/1/6
f 117/1/6 114/1/6 118/1/6
f 119/1/6 120/1/6 121/1/6
f 121/1/6 120/1/6 122/1/6
f 122/1/6 120/1/6 123/1/6
f 123/1/6 120/1/6 124/1/6
f 124/1/6 120/1/6 125/1/6
f 121/2/6 122/2/6 127/2/6
f 127/2/6 122/2/6 128/2/6
f 123/2/6 124/2/6 129/2/6
f 125/3/6 126/3/6 130/3/6
f 124/3/6 125/3/6 130/3/6
f 129/2/6 124/2/6 130/2/6
f 130/3/6 126/3/6 131/3/6
f 131/3/6 126/3/6 132/3/6
f 128/1/6 129/1/6 133/1/6
f 127/1/6 128/1/6 133/1/6
f 130/1/6 131/1/6 133/1/6
f 129/1/6 130/1/6 133/1/6
f 133/1/6 131/1/6 134/1/6
