# MagicaVoxel @ Ephtracy

# group
o plasma4

# material
mtllib plasma-1-plasma4.mtl
usemtl palette

# normals
vn -1 0 0
vn 1 0 0
vn 0 0 1
vn 0 0 -1
vn 0 -1 0
vn 0 1 0

# texcoords
vt 0.0371094 0.5
vt 0.0410156 0.5
vt 0.0449219 0.5
vt 0.0488281 0.5

# verts
v -0.3 0.2 -4.6
v -0.3 0.2 -4.7
v -0.3 0.2 -5.1
v -0.3 0.2 -5.2
v -0.3 0.4 -5.1
v -0.3 0.4 -5.2
v -0.3 0.5 -4.6
v -0.3 0.5 -4.7
v -0.3 0.5 -5.1
v -0.3 0.5 -5.2
v -0.3 0.6 -4.7
v -0.3 0.6 -5.1
v 3.7 0.2 -4.6
v 3.7 0.2 -4.7
v 3.7 0.2 -5.1
v 3.7 0.2 -5.2
v 3.7 0.4 -4.6
v 3.7 0.4 -4.7
v 3.7 0.5 -4.6
v 3.7 0.5 -4.7
v 3.7 0.5 -4.8
v 3.7 0.5 -5.1
v 3.7 0.5 -5.2
v 3.7 0.6 -4.7
v 3.7 0.6 -4.8
v 3.7 0.6 -5.1
v -0.3 0.2 -4.6
v -0.3 0.5 -4.6
v -0.2 0.3 -4.6
v -0.2 0.4 -4.6
v -0.2 0.5 -4.6
v -0.1 0.3 -4.6
v -0.1 0.4 -4.6
v 0 0.3 -4.6
v 0 0.4 -4.6
v 0.1 0.2 -4.6
v 0.1 0.3 -4.6
v 0.1 0.5 -4.6
v 0.2 0.2 -4.6
v 0.2 0.3 -4.6
v 0.3 0.4 -4.6
v 0.3 0.5 -4.6
v 0.4 0.2 -4.6
v 0.4 0.3 -4.6
v 0.4 0.4 -4.6
v 0.5 0.3 -4.6
v 0.5 0.4 -4.6
v 0.5 0.5 -4.6
v 0.7 0.2 -4.6
v 0.7 0.3 -4.6
v 0.7 0.4 -4.6
v 0.8 0.2 -4.6
v 0.8 0.3 -4.6
v 1.3 0.4 -4.6
v 1.3 0.5 -4.6
v 1.4 0.2 -4.6
v 1.4 0.3 -4.6
v 1.5 0.2 -4.6
v 1.5 0.3 -4.6
v 1.5 0.4 -4.6
v 1.5 0.5 -4.6
v 1.6 0.3 -4.6
v 1.6 0.4 -4.6
v 1.7 0.2 -4.6
v 1.7 0.3 -4.6
v 1.7 0.4 -4.6
v 1.8 0.3 -4.6
v 1.8 0.4 -4.6
v 2.1 0.2 -4.6
v 2.1 0.4 -4.6
v 2.2 0.4 -4.6
v 2.2 0.5 -4.6
v 2.3 0.2 -4.6
v 2.3 0.3 -4.6
v 2.5 0.4 -4.6
v 2.5 0.5 -4.6
v 2.6 0.2 -4.6
v 2.6 0.3 -4.6
v 2.6 0.4 -4.6
v 2.6 0.5 -4.6
v 2.7 0.2 -4.6
v 2.7 0.4 -4.6
v 2.8 0.4 -4.6
v 2.8 0.5 -4.6
v 2.9 0.2 -4.6
v 2.9 0.3 -4.6
v 3 0.3 -4.6
v 3 0.4 -4.6
v 3 0.5 -4.6
v 3.1 0.2 -4.6
v 3.1 0.3 -4.6
v 3.2 0.2 -4.6
v 3.2 0.3 -4.6
v 3.3 0.2 -4.6
v 3.3 0.4 -4.6
v 3.4 0.2 -4.6
v 3.4 0.4 -4.6
v 3.5 0.2 -4.6
v 3.5 0.3 -4.6
v 3.5 0.4 -4.6
v 3.5 0.5 -4.6
v 3.6 0.2 -4.6
v 3.6 0.3 -4.6
v 3.7 0.2 -4.6
v 3.7 0.4 -4.6
v 3.7 0.5 -4.6
v -0.3 0.5 -4.7
v -0.3 0.6 -4.7
v -0.2 0.5 -4.7
v -0.2 0.6 -4.7
v -0.1 0.5 -4.7
v -0.1 0.6 -4.7
v 0.1 0.5 -4.7
v 0.2 0.5 -4.7
v 0.2 0.6 -4.7
v 0.3 0.5 -4.7
v 0.3 0.6 -4.7
v 0.5 0.5 -4.7
v 0.8 0.5 -4.7
v 0.8 0.6 -4.7
v 0.9 0.5 -4.7
v 0.9 0.6 -4.7
v 1.3 0.5 -4.7
v 1.5 0.5 -4.7
v 1.9 0.5 -4.7
v 1.9 0.6 -4.7
v 2.2 0.5 -4.7
v 2.2 0.6 -4.7
v 2.3 0.5 -4.7
v 2.3 0.6 -4.7
v 2.4 0.5 -4.7
v 2.4 0.6 -4.7
v 2.5 0.5 -4.7
v 2.6 0.5 -4.7
v 2.8 0.5 -4.7
v 3 0.5 -4.7
v 3 0.6 -4.7
v 3.2 0.5 -4.7
v 3.2 0.6 -4.7
v 3.3 0.5 -4.7
v 3.3 0.6 -4.7
v 3.5 0.5 -4.7
v 3.7 0.5 -4.7
v 3.7 0.6 -4.7
v -0.3 0.5 -5.1
v -0.3 0.6 -5.1
v -0.2 0.5 -5.1
v -0.2 0.6 -5.1
v -0.1 0.5 -5.1
v -0.1 0.6 -5.1
v 0.2 0.5 -5.1
v 0.2 0.6 -5.1
v 0.3 0.5 -5.1
v 0.3 0.6 -5.1
v 0.4 0.5 -5.1
v 0.4 0.6 -5.1
v 0.7 0.5 -5.1
v 0.7 0.6 -5.1
v 0.8 0.5 -5.1
v 1 0.5 -5.1
v 1.2 0.5 -5.1
v 1.2 0.6 -5.1
v 1.4 0.5 -5.1
v 1.6 0.5 -5.1
v 2.6 0.5 -5.1
v 2.7 0.5 -5.1
v 2.7 0.6 -5.1
v 2.8 0.5 -5.1
v 3.1 0.5 -5.1
v 3.1 0.6 -5.1
v 3.2 0.5 -5.1
v 3.2 0.6 -5.1
v 3.3 0.5 -5.1
v 3.3 0.6 -5.1
v 3.4 0.5 -5.1
v 3.4 0.6 -5.1
v 3.5 0.5 -5.1
v 3.5 0.6 -5.1
v 3.6 0.5 -5.1
v 3.6 0.6 -5.1
v 3.7 0.5 -5.1
v 3.7 0.6 -5.1
v -0.3 0.2 -5.2
v -0.3 0.4 -5.2
v -0.3 0.5 -5.2
v -0.2 0.2 -5.2
v -0.2 0.4 -5.2
v -0.2 0.5 -5.2
v -0.1 0.2 -5.2
v -0.1 0.4 -5.2
v -0.1 0.5 -5.2
v 0.2 0.2 -5.2
v 0.2 0.3 -5.2
v 0.2 0.4 -5.2
v 0.2 0.5 -5.2
v 0.3 0.3 -5.2
v 0.3 0.5 -5.2
v 0.4 0.2 -5.2
v 0.4 0.4 -5.2
v 0.7 0.2 -5.2
v 0.7 0.4 -5.2
v 0.8 0.4 -5.2
v 0.8 0.5 -5.2
v 0.9 0.2 -5.2
v 0.9 0.4 -5.2
v 1 0.2 -5.2
v 1 0.3 -5.2
v 1 0.4 -5.2
v 1 0.5 -5.2
v 1.1 0.2 -5.2
v 1.1 0.3 -5.2
v 1.1 0.4 -5.2
v 1.2 0.2 -5.2
v 1.2 0.4 -5.2
v 1.4 0.4 -5.2
v 1.4 0.5 -5.2
v 1.5 0.3 -5.2
v 1.5 0.4 -5.2
v 1.6 0.2 -5.2
v 1.6 0.3 -5.2
v 1.6 0.4 -5.2
v 1.6 0.5 -5.2
v 1.7 0.3 -5.2
v 1.7 0.4 -5.2
v 1.9 0.3 -5.2
v 1.9 0.4 -5.2
v 2 0.2 -5.2
v 2 0.4 -5.2
v 2.6 0.2 -5.2
v 2.6 0.4 -5.2
v 2.6 0.5 -5.2
v 2.7 0.2 -5.2
v 2.7 0.4 -5.2
v 2.8 0.4 -5.2
v 2.8 0.5 -5.2
v 3.2 0.2 -5.2
v 3.2 0.4 -5.2
v 3.3 0.2 -5.2
v 3.3 0.4 -5.2
v 3.4 0.2 -5.2
v 3.4 0.4 -5.2
v 3.4 0.5 -5.2
v 3.5 0.2 -5.2
v 3.5 0.4 -5.2
v 3.5 0.5 -5.2
v 3.6 0.2 -5.2
v 3.6 0.4 -5.2
v 3.7 0.2 -5.2
v 3.7 0.5 -5.2
v -0.3 0.2 -4.6
v 0.1 0.2 -4.6
v 0.2 0.2 -4.6
v 0.4 0.2 -4.6
v 0.7 0.2 -4.6
v 0.8 0.2 -4.6
v 1.4 0.2 -4.6
v 1.5 0.2 -4.6
v 1.7 0.2 -4.6
v 2.1 0.2 -4.6
v 2.3 0.2 -4.6
v 2.6 0.2 -4.6
v 2.7 0.2 -4.6
v 2.9 0.2 -4.6
v 3.1 0.2 -4.6
v 3.2 0.2 -4.6
v 3.3 0.2 -4.6
v 3.4 0.2 -4.6
v 3.5 0.2 -4.6
v 3.6 0.2 -4.6
v 3.7 0.2 -4.6
v -0.3 0.2 -4.7
v 0.1 0.2 -4.7
v 0.2 0.2 -4.7
v 0.4 0.2 -4.7
v 0.7 0.2 -4.7
v 0.8 0.2 -4.7
v 1.4 0.2 -4.7
v 1.5 0.2 -4.7
v 1.7 0.2 -4.7
v 2.1 0.2 -4.7
v 2.3 0.2 -4.7
v 2.6 0.2 -4.7
v 2.7 0.2 -4.7
v 2.9 0.2 -4.7
v 3.1 0.2 -4.7
v 3.2 0.2 -4.7
v 3.3 0.2 -4.7
v 3.4 0.2 -4.7
v 3.5 0.2 -4.7
v 3.6 0.2 -4.7
v 3.7 0.2 -4.7
v -0.3 0.2 -5.1
v -0.2 0.2 -5.1
v -0.1 0.2 -5.1
v 0.2 0.2 -5.1
v 0.4 0.2 -5.1
v 0.7 0.2 -5.1
v 0.9 0.2 -5.1
v 1 0.2 -5.1
v 1.1 0.2 -5.1
v 1.2 0.2 -5.1
v 1.6 0.2 -5.1
v 2 0.2 -5.1
v 2.6 0.2 -5.1
v 2.7 0.2 -5.1
v 3.2 0.2 -5.1
v 3.3 0.2 -5.1
v 3.4 0.2 -5.1
v 3.5 0.2 -5.1
v 3.6 0.2 -5.1
v 3.7 0.2 -5.1
v -0.3 0.2 -5.2
v -0.2 0.2 -5.2
v -0.1 0.2 -5.2
v 0.2 0.2 -5.2
v 0.4 0.2 -5.2
v 0.7 0.2 -5.2
v 0.9 0.2 -5.2
v 1 0.2 -5.2
v 1.1 0.2 -5.2
v 1.2 0.2 -5.2
v 1.6 0.2 -5.2
v 2 0.2 -5.2
v 2.6 0.2 -5.2
v 2.7 0.2 -5.2
v 3.2 0.2 -5.2
v 3.3 0.2 -5.2
v 3.4 0.2 -5.2
v 3.5 0.2 -5.2
v 3.6 0.2 -5.2
v 3.7 0.2 -5.2
v -0.3 0.5 -4.6
v -0.2 0.5 -4.6
v 0.1 0.5 -4.6
v 0.3 0.5 -4.6
v 0.5 0.5 -4.6
v 1.3 0.5 -4.6
v 1.5 0.5 -4.6
v 2.2 0.5 -4.6
v 2.5 0.5 -4.6
v 2.6 0.5 -4.6
v 2.8 0.5 -4.6
v 3 0.5 -4.6
v 3.5 0.5 -4.6
v 3.7 0.5 -4.6
v -0.3 0.5 -4.7
v -0.2 0.5 -4.7
v -0.1 0.5 -4.7
v 0.1 0.5 -4.7
v 0.2 0.5 -4.7
v 0.3 0.5 -4.7
v 0.5 0.5 -4.7
v 0.8 0.5 -4.7
v 0.9 0.5 -4.7
v 1.3 0.5 -4.7
v 1.5 0.5 -4.7
v 1.9 0.5 -4.7
v 2.2 0.5 -4.7
v 2.3 0.5 -4.7
v 2.4 0.5 -4.7
v 2.5 0.5 -4.7
v 2.6 0.5 -4.7
v 2.8 0.5 -4.7
v 3 0.5 -4.7
v 3.2 0.5 -4.7
v 3.3 0.5 -4.7
v 3.5 0.5 -4.7
v 3.7 0.5 -4.7
v -0.3 0.5 -5.1
v -0.2 0.5 -5.1
v -0.1 0.5 -5.1
v 0.2 0.5 -5.1
v 0.3 0.5 -5.1
v 0.4 0.5 -5.1
v 0.7 0.5 -5.1
v 0.8 0.5 -5.1
v 1 0.5 -5.1
v 1.2 0.5 -5.1
v 1.4 0.5 -5.1
v 1.6 0.5 -5.1
v 2.6 0.5 -5.1
v 2.7 0.5 -5.1
v 2.8 0.5 -5.1
v 3.1 0.5 -5.1
v 3.2 0.5 -5.1
v 3.3 0.5 -5.1
v 3.4 0.5 -5.1
v 3.5 0.5 -5.1
v 3.6 0.5 -5.1
v 3.7 0.5 -5.1
v -0.3 0.5 -5.2
v -0.2 0.5 -5.2
v -0.1 0.5 -5.2
v 0.2 0.5 -5.2
v 0.3 0.5 -5.2
v 0.8 0.5 -5.2
v 1 0.5 -5.2
v 1.4 0.5 -5.2
v 1.6 0.5 -5.2
v 2.6 0.5 -5.2
v 2.8 0.5 -5.2
v 3.4 0.5 -5.2
v 3.5 0.5 -5.2
v 3.7 0.5 -5.2
v -0.3 0.6 -4.7
v -0.2 0.6 -4.7
v -0.1 0.6 -4.7
v 0.2 0.6 -4.7
v 0.3 0.6 -4.7
v 0.8 0.6 -4.7
v 0.9 0.6 -4.7
v 1.9 0.6 -4.7
v 2.2 0.6 -4.7
v 2.3 0.6 -4.7
v 2.4 0.6 -4.7
v 3 0.6 -4.7
v 3.2 0.6 -4.7
v 3.3 0.6 -4.7
v 3.7 0.6 -4.7
v 0.2 0.6 -4.8
v 0.3 0.6 -4.8
v 0.7 0.6 -4.8
v 0.8 0.6 -4.8
v 1.3 0.6 -4.8
v 1.7 0.6 -4.8
v 1.8 0.6 -4.8
v 1.9 0.6 -4.8
v 2.1 0.6 -4.8
v 2.2 0.6 -4.8
v 2.3 0.6 -4.8
v 2.4 0.6 -4.8
v 2.6 0.6 -4.8
v 2.7 0.6 -4.8
v 2.8 0.6 -4.8
v 3 0.6 -4.8
v 3.1 0.6 -4.8
v 3.6 0.6 -4.8
v 3.7 0.6 -4.8
v 0.3 0.6 -4.9
v 0.7 0.6 -4.9
v 0.9 0.6 -4.9
v 1 0.6 -4.9
v 1.3 0.6 -4.9
v 1.6 0.6 -4.9
v 1.7 0.6 -4.9
v 1.8 0.6 -4.9
v 1.9 0.6 -4.9
v 2 0.6 -4.9
v 2.6 0.6 -4.9
v 2.7 0.6 -4.9
v 3 0.6 -4.9
v 3.1 0.6 -4.9
v 3.2 0.6 -4.9
v 3.3 0.6 -4.9
v 3.4 0.6 -4.9
v 3.5 0.6 -4.9
v 0.2 0.6 -5
v 0.3 0.6 -5
v 0.4 0.6 -5
v 0.7 0.6 -5
v 0.9 0.6 -5
v 1 0.6 -5
v 1.2 0.6 -5
v 1.3 0.6 -5
v 1.6 0.6 -5
v 2 0.6 -5
v 2.1 0.6 -5
v 2.3 0.6 -5
v 2.4 0.6 -5
v 2.7 0.6 -5
v 2.8 0.6 -5
v 3 0.6 -5
v 3.1 0.6 -5
v 3.2 0.6 -5
v 3.3 0.6 -5
v -0.3 0.6 -5.1
v -0.2 0.6 -5.1
v -0.1 0.6 -5.1
v 0.2 0.6 -5.1
v 0.3 0.6 -5.1
v 0.4 0.6 -5.1
v 0.7 0.6 -5.1
v 1.2 0.6 -5.1
v 2.7 0.6 -5.1
v 3.1 0.6 -5.1
v 3.2 0.6 -5.1
v 3.3 0.6 -5.1
v 3.4 0.6 -5.1
v 3.5 0.6 -5.1
v 3.6 0.6 -5.1
v 3.7 0.6 -5.1

# faces
f 5/3/1 3/3/1 2/3/1
f 5/2/1 4/2/1 3/2/1
f 6/2/1 4/2/1 5/2/1
f 7/1/1 2/1/1 1/1/1
f 8/3/1 5/3/1 2/3/1
f 8/1/1 2/1/1 7/1/1
f 9/1/1 6/1/1 5/1/1
f 9/3/1 5/3/1 8/3/1
f 10/1/1 6/1/1 9/1/1
f 11/1/1 9/1/1 8/1/1
f 12/1/1 9/1/1 11/1/1
f 13/1/2 14/1/2 17/1/2
f 14/3/2 15/3/2 18/3/2
f 17/1/2 14/1/2 18/1/2
f 17/3/2 18/3/2 19/3/2
f 18/3/2 15/3/2 20/3/2
f 19/3/2 18/3/2 20/3/2
f 20/3/2 15/3/2 21/3/2
f 15/1/2 16/1/2 22/1/2
f 21/3/2 15/3/2 22/3/2
f 22/1/2 16/1/2 23/1/2
f 20/1/2 21/1/2 24/1/2
f 21/4/2 22/4/2 25/4/2
f 24/1/2 21/1/2 25/1/2
f 25/4/2 22/4/2 26/4/2
f 29/1/3 28/1/3 27/1/3
f 30/1/3 28/1/3 29/1/3
f 31/1/3 28/1/3 30/1/3
f 32/1/3 29/1/3 27/1/3
f 32/4/3 30/4/3 29/4/3
f 33/3/3 31/3/3 30/3/3
f 33/4/3 30/4/3 32/4/3
f 34/1/3 32/1/3 27/1/3
f 34/2/3 33/2/3 32/2/3
f 35/3/3 31/3/3 33/3/3
f 35/2/3 33/2/3 34/2/3
f 36/1/3 34/1/3 27/1/3
f 37/3/3 35/3/3 34/3/3
f 37/1/3 34/1/3 36/1/3
f 38/3/3 31/3/3 35/3/3
f 38/3/3 35/3/3 37/3/3
f 39/2/3 37/2/3 36/2/3
f 40/1/3 38/1/3 37/1/3
f 40/2/3 37/2/3 39/2/3
f 41/1/3 40/1/3 39/1/3
f 41/1/3 38/1/3 40/1/3
f 42/1/3 38/1/3 41/1/3
f 43/1/3 41/1/3 39/1/3
f 44/1/3 41/1/3 43/1/3
f 45/3/3 42/3/3 41/3/3
f 45/1/3 41/1/3 44/1/3
f 46/2/3 44/2/3 43/2/3
f 46/3/3 45/3/3 44/3/3
f 47/3/3 42/3/3 45/3/3
f 47/3/3 45/3/3 46/3/3
f 48/3/3 42/3/3 47/3/3
f 49/2/3 46/2/3 43/2/3
f 49/2/3 47/2/3 46/2/3
f 50/2/3 47/2/3 49/2/3
f 51/1/3 48/1/3 47/1/3
f 51/2/3 47/2/3 50/2/3
f 52/3/3 50/3/3 49/3/3
f 53/1/3 51/1/3 50/1/3
f 53/3/3 50/3/3 52/3/3
f 54/1/3 48/1/3 51/1/3
f 54/1/3 51/1/3 53/1/3
f 54/1/3 53/1/3 52/1/3
f 55/1/3 48/1/3 54/1/3
f 56/1/3 54/1/3 52/1/3
f 57/1/3 54/1/3 56/1/3
f 58/2/3 57/2/3 56/2/3
f 59/1/3 54/1/3 57/1/3
f 59/2/3 57/2/3 58/2/3
f 60/3/3 55/3/3 54/3/3
f 60/1/3 54/1/3 59/1/3
f 61/3/3 55/3/3 60/3/3
f 62/1/3 59/1/3 58/1/3
f 62/1/3 60/1/3 59/1/3
f 62/1/3 61/1/3 60/1/3
f 63/1/3 61/1/3 62/1/3
f 64/1/3 62/1/3 58/1/3
f 65/2/3 63/2/3 62/2/3
f 65/1/3 62/1/3 64/1/3
f 66/1/3 61/1/3 63/1/3
f 66/2/3 63/2/3 65/2/3
f 67/2/3 65/2/3 64/2/3
f 67/1/3 66/1/3 65/1/3
f 68/1/3 61/1/3 66/1/3
f 68/1/3 66/1/3 67/1/3
f 69/2/3 67/2/3 64/2/3
f 69/2/3 68/2/3 67/2/3
f 70/1/3 61/1/3 68/1/3
f 70/2/3 68/2/3 69/2/3
f 71/1/3 70/1/3 69/1/3
f 71/1/3 61/1/3 70/1/3
f 72/1/3 61/1/3 71/1/3
f 73/1/3 71/1/3 69/1/3
f 74/1/3 71/1/3 73/1/3
f 75/3/3 72/3/3 71/3/3
f 75/1/3 71/1/3 74/1/3
f 76/3/3 72/3/3 75/3/3
f 77/2/3 74/2/3 73/2/3
f 78/1/3 75/1/3 74/1/3
f 78/2/3 74/2/3 77/2/3
f 78/1/3 76/1/3 75/1/3
f 79/1/3 76/1/3 78/1/3
f 80/1/3 76/1/3 79/1/3
f 81/1/3 78/1/3 77/1/3
f 81/1/3 79/1/3 78/1/3
f 82/2/3 80/2/3 79/2/3
f 82/1/3 79/1/3 81/1/3
f 83/2/3 82/2/3 81/2/3
f 83/2/3 80/2/3 82/2/3
f 84/2/3 80/2/3 83/2/3
f 85/2/3 83/2/3 81/2/3
f 86/2/3 83/2/3 85/2/3
f 87/1/3 86/1/3 85/1/3
f 87/2/3 83/2/3 86/2/3
f 88/3/3 84/3/3 83/3/3
f 88/2/3 83/2/3 87/2/3
f 89/3/3 84/3/3 88/3/3
f 90/1/3 87/1/3 85/1/3
f 90/1/3 88/1/3 87/1/3
f 90/1/3 89/1/3 88/1/3
f 91/1/3 89/1/3 90/1/3
f 92/2/3 91/2/3 90/2/3
f 93/1/3 89/1/3 91/1/3
f 93/2/3 91/2/3 92/2/3
f 94/1/3 93/1/3 92/1/3
f 95/1/3 89/1/3 93/1/3
f 95/1/3 93/1/3 94/1/3
f 96/2/3 95/2/3 94/2/3
f 97/1/3 89/1/3 95/1/3
f 97/2/3 95/2/3 96/2/3
f 98/1/3 97/1/3 96/1/3
f 99/1/3 97/1/3 98/1/3
f 100/1/3 89/1/3 97/1/3
f 100/1/3 97/1/3 99/1/3
f 101/1/3 89/1/3 100/1/3
f 102/2/3 99/2/3 98/2/3
f 103/1/3 100/1/3 99/1/3
f 103/2/3 99/2/3 102/2/3
f 104/1/3 103/1/3 102/1/3
f 105/3/3 101/3/3 100/3/3
f 105/1/3 103/1/3 104/1/3
f 105/1/3 100/1/3 103/1/3
f 106/3/3 101/3/3 105/3/3
f 109/1/3 108/1/3 107/1/3
f 110/1/3 108/1/3 109/1/3
f 111/4/3 110/4/3 109/4/3
f 112/4/3 110/4/3 111/4/3
f 113/1/3 112/1/3 111/1/3
f 114/1/3 112/1/3 113/1/3
f 115/1/3 112/1/3 114/1/3
f 116/3/3 115/3/3 114/3/3
f 117/3/3 115/3/3 116/3/3
f 118/1/3 117/1/3 116/1/3
f 119/1/3 117/1/3 118/1/3
f 120/1/3 117/1/3 119/1/3
f 121/3/3 120/3/3 119/3/3
f 122/3/3 120/3/3 121/3/3
f 123/1/3 122/1/3 121/1/3
f 124/1/3 122/1/3 123/1/3
f 125/1/3 122/1/3 124/1/3
f 126/1/3 122/1/3 125/1/3
f 127/3/3 126/3/3 125/3/3
f 128/3/3 126/3/3 127/3/3
f 129/1/3 128/1/3 127/1/3
f 130/1/3 128/1/3 129/1/3
f 131/3/3 130/3/3 129/3/3
f 132/3/3 130/3/3 131/3/3
f 133/1/3 132/1/3 131/1/3
f 134/1/3 132/1/3 133/1/3
f 135/1/3 132/1/3 134/1/3
f 136/1/3 132/1/3 135/1/3
f 137/1/3 132/1/3 136/1/3
f 138/3/3 137/3/3 136/3/3
f 139/3/3 137/3/3 138/3/3
f 140/4/3 139/4/3 138/4/3
f 141/4/3 139/4/3 140/4/3
f 142/1/3 141/1/3 140/1/3
f 143/1/3 141/1/3 142/1/3
f 144/1/3 141/1/3 143/1/3
f 145/1/4 146/1/4 147/1/4
f 147/1/4 146/1/4 148/1/4
f 147/4/4 148/4/4 149/4/4
f 149/4/4 148/4/4 150/4/4
f 149/1/4 150/1/4 151/1/4
f 151/1/4 150/1/4 152/1/4
f 151/4/4 152/4/4 153/4/4
f 153/4/4 152/4/4 154/4/4
f 153/3/4 154/3/4 155/3/4
f 155/3/4 154/3/4 156/3/4
f 155/1/4 156/1/4 157/1/4
f 157/1/4 156/1/4 158/1/4
f 157/3/4 158/3/4 159/3/4
f 159/3/4 158/3/4 160/3/4
f 160/3/4 158/3/4 161/3/4
f 161/3/4 158/3/4 162/3/4
f 161/1/4 162/1/4 163/1/4
f 163/1/4 162/1/4 164/1/4
f 164/1/4 162/1/4 165/1/4
f 165/1/4 162/1/4 166/1/4
f 166/1/4 162/1/4 167/1/4
f 166/3/4 167/3/4 168/3/4
f 168/3/4 167/3/4 169/3/4
f 169/3/4 167/3/4 170/3/4
f 169/1/4 170/1/4 171/1/4
f 171/1/4 170/1/4 172/1/4
f 171/4/4 172/4/4 173/4/4
f 173/4/4 172/4/4 174/4/4
f 173/1/4 174/1/4 175/1/4
f 175/1/4 174/1/4 176/1/4
f 175/4/4 176/4/4 177/4/4
f 177/4/4 176/4/4 178/4/4
f 177/1/4 178/1/4 179/1/4
f 179/1/4 178/1/4 180/1/4
f 179/4/4 180/4/4 181/4/4
f 181/4/4 180/4/4 182/4/4
f 183/2/4 184/2/4 186/2/4
f 184/1/4 185/1/4 187/1/4
f 186/2/4 184/2/4 187/2/4
f 187/1/4 185/1/4 188/1/4
f 186/4/4 187/4/4 189/4/4
f 187/4/4 188/4/4 189/4/4
f 189/4/4 188/4/4 190/4/4
f 190/4/4 188/4/4 191/4/4
f 189/2/4 190/2/4 192/2/4
f 192/2/4 190/2/4 193/2/4
f 190/1/4 191/1/4 194/1/4
f 193/2/4 190/2/4 194/2/4
f 194/1/4 191/1/4 195/1/4
f 192/1/4 193/1/4 196/1/4
f 193/4/4 194/4/4 196/4/4
f 194/4/4 195/4/4 196/4/4
f 196/4/4 195/4/4 197/4/4
f 192/1/4 196/1/4 198/1/4
f 196/1/4 197/1/4 198/1/4
f 198/1/4 197/1/4 199/1/4
f 198/2/4 199/2/4 200/2/4
f 199/1/4 197/1/4 201/1/4
f 200/2/4 199/2/4 201/2/4
f 200/3/4 201/3/4 202/3/4
f 201/1/4 197/1/4 202/1/4
f 202/1/4 197/1/4 203/1/4
f 200/3/4 202/3/4 204/3/4
f 202/4/4 203/4/4 205/4/4
f 204/3/4 202/3/4 205/3/4
f 204/1/4 205/1/4 206/1/4
f 206/1/4 205/1/4 207/1/4
f 205/4/4 203/4/4 208/4/4
f 207/1/4 205/1/4 208/1/4
f 208/4/4 203/4/4 209/4/4
f 206/3/4 207/3/4 210/3/4
f 207/1/4 208/1/4 211/1/4
f 210/3/4 207/3/4 211/3/4
f 208/1/4 209/1/4 211/1/4
f 211/1/4 209/1/4 212/1/4
f 210/4/4 211/4/4 213/4/4
f 211/4/4 212/4/4 213/4/4
f 212/1/4 209/1/4 214/1/4
f 213/4/4 212/4/4 214/4/4
f 213/2/4 214/2/4 215/2/4
f 214/1/4 209/1/4 215/1/4
f 215/1/4 209/1/4 216/1/4
f 213/2/4 215/2/4 217/2/4
f 215/4/4 216/4/4 218/4/4
f 217/2/4 215/2/4 218/2/4
f 213/2/4 217/2/4 219/2/4
f 217/4/4 218/4/4 220/4/4
f 219/2/4 217/2/4 220/2/4
f 218/4/4 216/4/4 221/4/4
f 220/4/4 218/4/4 221/4/4
f 221/4/4 216/4/4 222/4/4
f 219/4/4 220/4/4 223/4/4
f 220/4/4 221/4/4 223/4/4
f 221/1/4 222/1/4 224/1/4
f 223/4/4 221/4/4 224/4/4
f 219/4/4 223/4/4 225/4/4
f 223/2/4 224/2/4 225/2/4
f 224/1/4 222/1/4 226/1/4
f 225/2/4 224/2/4 226/2/4
f 219/4/4 225/4/4 227/4/4
f 225/4/4 226/4/4 227/4/4
f 226/1/4 222/1/4 228/1/4
f 227/4/4 226/4/4 228/4/4
f 227/2/4 228/2/4 229/2/4
f 228/1/4 222/1/4 230/1/4
f 229/2/4 228/2/4 230/2/4
f 230/1/4 222/1/4 231/1/4
f 229/1/4 230/1/4 232/1/4
f 230/2/4 231/2/4 233/2/4
f 232/1/4 230/1/4 233/1/4
f 232/2/4 233/2/4 234/2/4
f 233/2/4 231/2/4 234/2/4
f 234/2/4 231/2/4 235/2/4
f 232/2/4 234/2/4 236/2/4
f 234/1/4 235/1/4 237/1/4
f 236/2/4 234/2/4 237/2/4
f 236/1/4 237/1/4 238/1/4
f 237/1/4 235/1/4 239/1/4
f 238/1/4 237/1/4 239/1/4
f 238/2/4 239/2/4 240/2/4
f 239/1/4 235/1/4 241/1/4
f 240/2/4 239/2/4 241/2/4
f 241/1/4 235/1/4 242/1/4
f 240/1/4 241/1/4 243/1/4
f 241/4/4 242/4/4 244/4/4
f 243/1/4 241/1/4 244/1/4
f 244/4/4 242/4/4 245/4/4
f 243/2/4 244/2/4 246/2/4
f 244/1/4 245/1/4 247/1/4
f 246/2/4 244/2/4 247/2/4
f 246/1/4 247/1/4 248/1/4
f 247/1/4 245/1/4 249/1/4
f 248/1/4 247/1/4 249/1/4
f 271/1/5 251/1/5 250/1/5
f 272/2/5 252/2/5 251/2/5
f 272/1/5 251/1/5 271/1/5
f 273/1/5 253/1/5 252/1/5
f 273/2/5 252/2/5 272/2/5
f 274/2/5 254/2/5 253/2/5
f 274/1/5 253/1/5 273/1/5
f 275/3/5 255/3/5 254/3/5
f 275/2/5 254/2/5 274/2/5
f 276/1/5 256/1/5 255/1/5
f 276/3/5 255/3/5 275/3/5
f 277/2/5 257/2/5 256/2/5
f 277/1/5 256/1/5 276/1/5
f 278/1/5 258/1/5 257/1/5
f 278/2/5 257/2/5 277/2/5
f 279/2/5 259/2/5 258/2/5
f 279/1/5 258/1/5 278/1/5
f 280/1/5 260/1/5 259/1/5
f 280/2/5 259/2/5 279/2/5
f 281/2/5 261/2/5 260/2/5
f 281/1/5 260/1/5 280/1/5
f 282/1/5 262/1/5 261/1/5
f 282/2/5 261/2/5 281/2/5
f 283/2/5 263/2/5 262/2/5
f 283/1/5 262/1/5 282/1/5
f 284/1/5 264/1/5 263/1/5
f 284/2/5 263/2/5 283/2/5
f 285/2/5 265/2/5 264/2/5
f 285/1/5 264/1/5 284/1/5
f 286/1/5 266/1/5 265/1/5
f 286/2/5 265/2/5 285/2/5
f 287/2/5 267/2/5 266/2/5
f 287/1/5 266/1/5 286/1/5
f 288/1/5 268/1/5 267/1/5
f 288/2/5 267/2/5 287/2/5
f 289/2/5 269/2/5 268/2/5
f 289/1/5 268/1/5 288/1/5
f 290/1/5 270/1/5 269/1/5
f 290/2/5 269/2/5 289/2/5
f 291/1/5 270/1/5 290/1/5
f 292/3/5 289/3/5 288/3/5
f 292/3/5 272/3/5 271/3/5
f 292/3/5 291/3/5 290/3/5
f 292/3/5 290/3/5 289/3/5
f 292/3/5 288/3/5 287/3/5
f 292/3/5 287/3/5 286/3/5
f 292/3/5 286/3/5 285/3/5
f 292/3/5 285/3/5 284/3/5
f 292/3/5 284/3/5 283/3/5
f 292/3/5 283/3/5 282/3/5
f 292/3/5 282/3/5 281/3/5
f 292/3/5 281/3/5 280/3/5
f 292/3/5 280/3/5 279/3/5
f 292/3/5 279/3/5 278/3/5
f 292/3/5 278/3/5 277/3/5
f 292/3/5 277/3/5 276/3/5
f 292/3/5 276/3/5 275/3/5
f 292/3/5 275/3/5 274/3/5
f 292/3/5 274/3/5 273/3/5
f 292/3/5 273/3/5 272/3/5
f 293/3/5 291/3/5 292/3/5
f 294/3/5 291/3/5 293/3/5
f 295/3/5 291/3/5 294/3/5
f 296/3/5 291/3/5 295/3/5
f 297/3/5 291/3/5 296/3/5
f 298/3/5 291/3/5 297/3/5
f 299/3/5 291/3/5 298/3/5
f 300/3/5 291/3/5 299/3/5
f 301/3/5 291/3/5 300/3/5
f 302/3/5 291/3/5 301/3/5
f 303/3/5 291/3/5 302/3/5
f 304/3/5 291/3/5 303/3/5
f 305/3/5 291/3/5 304/3/5
f 306/3/5 291/3/5 305/3/5
f 307/3/5 291/3/5 306/3/5
f 308/3/5 291/3/5 307/3/5
f 309/3/5 291/3/5 308/3/5
f 310/3/5 291/3/5 309/3/5
f 311/3/5 291/3/5 310/3/5
f 312/2/5 293/2/5 292/2/5
f 313/4/5 294/4/5 293/4/5
f 313/2/5 293/2/5 312/2/5
f 314/2/5 295/2/5 294/2/5
f 314/4/5 294/4/5 313/4/5
f 315/1/5 296/1/5 295/1/5
f 315/2/5 295/2/5 314/2/5
f 316/2/5 297/2/5 296/2/5
f 316/1/5 296/1/5 315/1/5
f 317/3/5 298/3/5 297/3/5
f 317/2/5 297/2/5 316/2/5
f 318/1/5 299/1/5 298/1/5
f 318/3/5 298/3/5 317/3/5
f 319/3/5 300/3/5 299/3/5
f 319/1/5 299/1/5 318/1/5
f 320/4/5 301/4/5 300/4/5
f 320/3/5 300/3/5 319/3/5
f 321/2/5 302/2/5 301/2/5
f 321/4/5 301/4/5 320/4/5
f 322/4/5 303/4/5 302/4/5
f 322/2/5 302/2/5 321/2/5
f 323/2/5 304/2/5 303/2/5
f 323/4/5 303/4/5 322/4/5
f 324/1/5 305/1/5 304/1/5
f 324/2/5 304/2/5 323/2/5
f 325/2/5 306/2/5 305/2/5
f 325/1/5 305/1/5 324/1/5
f 326/1/5 307/1/5 306/1/5
f 326/2/5 306/2/5 325/2/5
f 327/2/5 308/2/5 307/2/5
f 327/1/5 307/1/5 326/1/5
f 328/1/5 309/1/5 308/1/5
f 328/2/5 308/2/5 327/2/5
f 329/2/5 310/2/5 309/2/5
f 329/1/5 309/1/5 328/1/5
f 330/1/5 311/1/5 310/1/5
f 330/2/5 310/2/5 329/2/5
f 331/1/5 311/1/5 330/1/5
f 332/1/6 333/1/6 346/1/6
f 333/3/6 334/3/6 347/3/6
f 346/1/6 333/1/6 347/1/6
f 347/3/6 334/3/6 348/3/6
f 334/1/6 335/1/6 349/1/6
f 348/3/6 334/3/6 349/3/6
f 349/1/6 335/1/6 350/1/6
f 335/3/6 336/3/6 351/3/6
f 350/1/6 335/1/6 351/1/6
f 336/1/6 337/1/6 352/1/6
f 351/3/6 336/3/6 352/3/6
f 352/1/6 337/1/6 353/1/6
f 353/1/6 337/1/6 354/1/6
f 337/3/6 338/3/6 355/3/6
f 354/1/6 337/1/6 355/1/6
f 338/1/6 339/1/6 356/1/6
f 355/3/6 338/3/6 356/3/6
f 356/1/6 339/1/6 357/1/6
f 339/3/6 340/3/6 358/3/6
f 357/1/6 339/1/6 358/1/6
f 358/3/6 340/3/6 359/3/6
f 359/3/6 340/3/6 360/3/6
f 340/1/6 341/1/6 361/1/6
f 360/3/6 340/3/6 361/3/6
f 341/2/6 342/2/6 362/2/6
f 361/1/6 341/1/6 362/1/6
f 342/3/6 343/3/6 363/3/6
f 362/2/6 342/2/6 363/2/6
f 343/1/6 344/1/6 364/1/6
f 363/3/6 343/3/6 364/3/6
f 364/1/6 344/1/6 365/1/6
f 365/1/6 344/1/6 366/1/6
f 344/3/6 345/3/6 367/3/6
f 366/1/6 344/1/6 367/1/6
f 367/3/6 345/3/6 368/3/6
f 369/1/6 370/1/6 391/1/6
f 370/4/6 371/4/6 392/4/6
f 391/1/6 370/1/6 392/1/6
f 371/1/6 372/1/6 393/1/6
f 392/4/6 371/4/6 393/4/6
f 372/4/6 373/4/6 394/4/6
f 393/1/6 372/1/6 394/1/6
f 373/1/6 374/1/6 395/1/6
f 394/4/6 373/4/6 395/4/6
f 374/1/6 375/1/6 395/1/6
f 375/1/6 376/1/6 395/1/6
f 376/4/6 377/4/6 396/4/6
f 395/1/6 376/1/6 396/1/6
f 377/1/6 378/1/6 397/1/6
f 396/4/6 377/4/6 397/4/6
f 378/1/6 379/1/6 397/1/6
f 379/4/6 380/4/6 398/4/6
f 397/1/6 379/1/6 398/1/6
f 380/1/6 381/1/6 399/1/6
f 398/4/6 380/4/6 399/4/6
f 381/2/6 382/2/6 400/2/6
f 399/1/6 381/1/6 400/1/6
f 382/2/6 383/2/6 400/2/6
f 386/1/6 387/1/6 401/1/6
f 400/2/6 383/2/6 401/2/6
f 385/1/6 386/1/6 401/1/6
f 384/1/6 385/1/6 401/1/6
f 383/1/6 384/1/6 401/1/6
f 387/4/6 388/4/6 402/4/6
f 401/1/6 387/1/6 402/1/6
f 389/1/6 390/1/6 403/1/6
f 402/4/6 388/4/6 403/4/6
f 388/1/6 389/1/6 403/1/6
f 403/1/6 390/1/6 404/1/6
f 407/1/6 408/1/6 420/1/6
f 408/3/6 409/3/6 420/3/6
f 409/1/6 410/1/6 421/1/6
f 420/3/6 409/3/6 421/3/6
f 421/1/6 410/1/6 422/1/6
f 410/3/6 411/3/6 423/3/6
f 422/1/6 410/1/6 423/1/6
f 411/1/6 412/1/6 424/1/6
f 424/1/6 412/1/6 425/1/6
f 425/1/6 412/1/6 426/1/6
f 412/3/6 413/3/6 427/3/6
f 426/1/6 412/1/6 427/1/6
f 427/3/6 413/3/6 428/3/6
f 413/1/6 414/1/6 429/1/6
f 428/3/6 413/3/6 429/3/6
f 414/3/6 415/3/6 430/3/6
f 429/1/6 414/1/6 430/1/6
f 415/1/6 416/1/6 431/1/6
f 430/3/6 415/3/6 431/3/6
f 431/1/6 416/1/6 432/1/6
f 432/1/6 416/1/6 433/1/6
f 433/1/6 416/1/6 434/1/6
f 416/3/6 417/3/6 435/3/6
f 434/1/6 416/1/6 435/1/6
f 435/3/6 417/3/6 436/3/6
f 418/1/6 419/1/6 437/1/6
f 437/1/6 419/1/6 438/1/6
f 421/1/6 422/1/6 439/1/6
f 420/1/6 421/1/6 439/1/6
f 422/3/6 423/3/6 440/3/6
f 439/1/6 422/1/6 440/1/6
f 423/3/6 411/3/6 441/3/6
f 440/3/6 423/3/6 441/3/6
f 411/1/6 424/1/6 441/1/6
f 441/1/6 424/1/6 442/1/6
f 424/3/6 425/3/6 443/3/6
f 442/1/6 424/1/6 443/1/6
f 443/3/6 425/3/6 444/3/6
f 425/1/6 426/1/6 445/1/6
f 444/3/6 425/3/6 445/3/6
f 426/3/6 427/3/6 446/3/6
f 445/1/6 426/1/6 446/1/6
f 427/1/6 428/1/6 447/1/6
f 446/3/6 427/3/6 447/3/6
f 447/1/6 428/1/6 448/1/6
f 431/3/6 432/3/6 449/3/6
f 432/1/6 433/1/6 449/1/6
f 433/3/6 434/3/6 450/3/6
f 449/1/6 433/1/6 450/1/6
f 434/1/6 435/1/6 451/1/6
f 435/1/6 436/1/6 451/1/6
f 436/3/6 417/3/6 452/3/6
f 451/1/6 436/1/6 452/1/6
f 417/4/6 418/4/6 453/4/6
f 452/3/6 417/3/6 453/3/6
f 418/1/6 437/1/6 454/1/6
f 453/4/6 418/4/6 454/4/6
f 454/1/6 437/1/6 455/1/6
f 455/1/6 437/1/6 456/1/6
f 407/1/6 420/1/6 457/1/6
f 420/1/6 439/1/6 457/1/6
f 439/3/6 440/3/6 458/3/6
f 457/1/6 439/1/6 458/1/6
f 440/3/6 441/3/6 458/3/6
f 458/3/6 441/3/6 459/3/6
f 459/3/6 441/3/6 460/3/6
f 441/4/6 442/4/6 461/4/6
f 460/3/6 441/3/6 461/3/6
f 442/3/6 443/3/6 462/3/6
f 461/4/6 442/4/6 462/4/6
f 462/3/6 443/3/6 463/3/6
f 443/1/6 444/1/6 464/1/6
f 463/3/6 443/3/6 464/3/6
f 445/3/6 446/3/6 465/3/6
f 464/1/6 444/1/6 465/1/6
f 444/3/6 445/3/6 465/3/6
f 447/3/6 448/3/6 465/3/6
f 446/3/6 447/3/6 465/3/6
f 448/1/6 428/1/6 466/1/6
f 465/3/6 448/3/6 466/3/6
f 428/3/6 429/3/6 467/3/6
f 466/1/6 428/1/6 467/1/6
f 429/3/6 430/3/6 467/3/6
f 430/1/6 431/1/6 468/1/6
f 467/3/6 430/3/6 468/3/6
f 431/3/6 449/3/6 469/3/6
f 468/1/6 431/1/6 469/1/6
f 449/3/6 450/3/6 469/3/6
f 450/3/6 434/3/6 470/3/6
f 469/3/6 450/3/6 470/3/6
f 434/1/6 451/1/6 471/1/6
f 470/3/6 434/3/6 471/3/6
f 451/3/6 452/3/6 472/3/6
f 471/1/6 451/1/6 472/1/6
f 452/3/6 453/3/6 472/3/6
f 472/3/6 453/3/6 473/3/6
f 453/1/6 454/1/6 474/1/6
f 473/3/6 453/3/6 474/3/6
f 454/1/6 455/1/6 474/1/6
f 474/1/6 455/1/6 475/1/6
f 405/1/6 406/1/6 476/1/6
f 406/4/6 407/4/6 477/4/6
f 476/1/6 406/1/6 477/1/6
f 407/1/6 457/1/6 478/1/6
f 477/4/6 407/4/6 478/4/6
f 457/4/6 458/4/6 479/4/6
f 478/1/6 457/1/6 479/1/6
f 458/3/6 459/3/6 480/3/6
f 479/4/6 458/4/6 480/4/6
f 459/1/6 460/1/6 481/1/6
f 480/3/6 459/3/6 481/3/6
f 462/3/6 463/3/6 482/3/6
f 481/1/6 460/1/6 482/1/6
f 460/3/6 461/3/6 482/3/6
f 461/3/6 462/3/6 482/3/6
f 469/1/6 470/1/6 483/1/6
f 482/3/6 463/3/6 483/3/6
f 463/1/6 464/1/6 483/1/6
f 465/1/6 466/1/6 483/1/6
f 467/1/6 468/1/6 483/1/6
f 468/1/6 469/1/6 483/1/6
f 466/1/6 467/1/6 483/1/6
f 464/1/6 465/1/6 483/1/6
f 470/3/6 471/3/6 484/3/6
f 483/1/6 470/1/6 484/1/6
f 471/3/6 472/3/6 484/3/6
f 472/3/6 473/3/6 484/3/6
f 473/1/6 474/1/6 485/1/6
f 484/3/6 473/3/6 485/3/6
f 474/4/6 475/4/6 486/4/6
f 485/1/6 474/1/6 486/1/6
f 475/1/6 455/1/6 487/1/6
f 486/4/6 475/4/6 487/4/6
f 455/4/6 456/4/6 488/4/6
f 487/1/6 455/1/6 488/1/6
f 456/1/6 437/1/6 489/1/6
f 488/4/6 456/4/6 489/4/6
f 437/4/6 438/4/6 490/4/6
f 489/1/6 437/1/6 490/1/6
f 490/4/6 438/4/6 491/4/6
